<svg width="106" height="24" viewBox="0 0 106 24" fill="none" xmlns="http://www.w3.org/2000/svg">
<g clip-path="url(#clip0_582_110)">
<path d="M33.0846 3.70966C32.8906 2.99257 32.512 2.33884 31.9867 1.81357C31.4614 1.2883 30.8077 0.90983 30.0906 0.715862C27.4653 0 16.9003 0 16.9003 0C16.9003 0 6.33492 0.0217241 3.71002 0.737586C2.99296 0.931586 2.33924 1.31007 1.81398 1.83533C1.28871 2.3606 0.910228 3.01432 0.716228 3.73138C-0.0778406 8.39586 -0.38591 15.503 0.737953 19.9806C0.931952 20.6977 1.31043 21.3514 1.8357 21.8767C2.36097 22.4019 3.01469 22.7804 3.73175 22.9744C6.35685 23.6903 16.922 23.6903 16.922 23.6903C16.922 23.6903 27.4872 23.6903 30.1123 22.9744C30.8294 22.7804 31.4831 22.4019 32.0083 21.8767C32.5336 21.3514 32.9121 20.6977 33.1061 19.9806C33.9434 15.3097 34.2016 8.20697 33.0844 3.70986" fill="#FF0000"/>
<path d="M13.5391 16.9216L22.3036 11.8452L13.5391 6.76855V16.9216Z" fill="white"/>
<path d="M101.641 6.87745C102.79 6.87745 103.658 7.09428 104.265 7.50642C104.873 7.91869 105.307 8.56959 105.567 9.45911C105.827 10.3486 105.936 11.5632 105.936 13.1253V15.6637H100.36V16.4446L100.447 18.5923C100.512 19.0697 100.621 19.4168 100.794 19.6337C100.968 19.8507 101.25 19.9591 101.619 19.9591C102.118 19.9591 102.465 19.764 102.638 19.3736C102.834 18.983 102.92 18.3321 102.942 17.4426L105.827 17.6162C105.849 17.7463 105.849 17.9199 105.849 18.1368C105.849 19.5035 105.48 20.5233 104.721 21.1957C103.962 21.8681 102.92 22.2153 101.554 22.2153C99.9049 22.2153 98.7551 21.6948 98.1042 20.6752C97.4535 19.6554 97.1064 18.0499 97.1064 15.9023V13.2772C97.18 9.58924 97.8286 6.88821 101.641 6.87745ZM61.5274 7.15945V18.0283C61.5274 18.6792 61.5924 19.1566 61.7442 19.4386C62.0523 20.0417 62.8507 19.8875 63.2846 19.5904C63.535 19.421 63.7369 19.1893 63.8703 18.918V7.15924H67.1895V21.9766H64.5862L64.3042 20.1542H64.2392C63.5233 21.521 62.4601 22.2151 61.0501 22.2151C58.8797 22.2097 58.3486 20.646 58.2222 19.0579L58.214 18.9459C58.1983 18.7054 58.1891 18.4645 58.1864 18.2235V7.15945H61.5274ZM78.6444 7.15945V18.0283C78.6444 18.6792 78.7093 19.1566 78.8612 19.4386C79.1695 20.0417 79.9677 19.8875 80.4015 19.5904C80.6519 19.421 80.8538 19.1893 80.9873 18.918V7.15924H84.3065V21.9766H81.7031L81.4211 20.1542H81.3562C80.6403 21.521 79.5771 22.2151 78.1671 22.2151C75.9967 22.2097 75.4656 20.646 75.3392 19.0579L75.3309 18.9459C75.3153 18.7054 75.3061 18.4645 75.3034 18.2235V7.15945H78.6444ZM51.8949 6.87745C52.9797 6.87745 53.8691 7.09428 54.52 7.54986C55.1707 8.00545 55.6698 8.6998 55.9735 9.65421C56.2772 10.6088 56.4291 11.8887 56.4291 13.4725V15.6201C56.4291 17.2039 56.2772 18.4622 55.9735 19.4166C55.6698 20.3715 55.1924 21.0656 54.52 21.5212C53.8476 21.955 52.9362 22.1936 51.8082 22.1936C50.6366 22.2153 49.7254 21.9768 49.053 21.5429C48.3806 21.0873 47.9031 20.393 47.6213 19.4386C47.3391 18.4839 47.2089 17.2256 47.2089 15.642V13.494C47.2089 11.9102 47.3608 10.6086 47.6862 9.654C48.0117 8.67786 48.5105 7.98352 49.2049 7.54986C49.899 7.1158 50.7884 6.87724 51.8949 6.87724M89.5133 0.933105V8.74304H89.535C89.8387 8.17904 90.2291 7.72345 90.7716 7.37628C91.2782 7.03584 91.875 6.85457 92.4853 6.85573C93.2881 6.85573 93.8955 7.07255 94.3511 7.48469C94.8067 7.91876 95.1322 8.59118 95.3273 9.52407C95.5166 10.4278 95.6242 11.6777 95.6308 13.2538L95.631 13.4075V15.7504C95.631 17.9415 95.349 19.5687 94.8282 20.61C94.2862 21.6513 93.4617 22.1721 92.3335 22.1721C91.7045 22.1721 91.1403 22.0202 90.6198 21.7382C90.1594 21.4697 89.7777 21.085 89.5129 20.6226L89.4698 20.5448H89.4049L89.0577 21.955H86.3024V0.933312L89.5133 0.933105ZM76.2361 1.69242V4.38228H72.9386V21.9766H69.6845V4.38249H66.3653V1.69262L76.2361 1.69242ZM40.4618 1.69242L40.4639 1.70069C40.4955 1.84159 40.9342 3.79159 41.4166 6.06352L41.4547 6.24352L41.5122 6.51559L41.5507 6.69828L41.57 6.78993L41.6084 6.97366L41.6277 7.06573L41.666 7.25007L41.7218 7.51966C42.0477 9.0929 42.3586 10.6707 42.5446 11.802H42.6315C42.8097 10.7872 43.0685 9.48849 43.3445 8.16249L43.4169 7.81614C43.4532 7.64262 43.4898 7.46938 43.5266 7.29642L43.5833 7.02807C43.9581 5.27086 44.3441 3.51607 44.7413 1.7638L44.7475 1.73586L44.7574 1.69242H48.0766L44.2366 15.3817V21.955H40.9609V15.4032H40.9391L37.1426 1.69221L40.4618 1.69242ZM51.8298 9.1769C51.3742 9.1769 51.0704 9.41566 50.8753 9.91469C50.6802 10.4137 50.5933 11.1728 50.5933 12.2361V16.8569C50.5933 17.9417 50.68 18.7442 50.8536 19.2217C51.0273 19.699 51.3526 19.9376 51.8298 19.9376C52.2853 19.9376 52.6108 19.699 52.8061 19.2217C53.0014 18.7442 53.0881 17.9417 53.0881 16.8569V12.2359C53.0881 11.1728 53.0012 10.3918 52.8061 9.91449C52.6108 9.41566 52.2853 9.1769 51.8298 9.1769ZM90.099 9.61097C89.8346 9.85511 89.6465 10.1561 89.5346 10.5325L89.5133 10.6088V19.0262C89.7822 19.4818 90.1642 19.7855 90.8366 19.8072C91.1836 19.8072 91.4657 19.6771 91.6828 19.4168C91.8996 19.1566 92.0514 18.7226 92.1382 18.115C92.2216 17.532 92.265 16.729 92.2683 15.7059V13.6461C92.2683 12.4746 92.2249 11.5852 92.1599 10.956C92.073 10.3268 91.9648 9.87124 91.7695 9.61097C91.3919 9.06849 90.5763 9.07511 90.099 9.61097ZM101.576 9.11193C101.207 9.13359 100.946 9.24207 100.794 9.43738C100.621 9.65421 100.512 9.97966 100.447 10.457C100.383 10.9246 100.361 12.559 100.36 12.6244V13.6895H102.79V12.7502V12.7682C102.789 13.0966 102.782 12.5777 102.767 11.9406L102.765 11.855C102.751 11.2951 102.731 10.6709 102.704 10.457C102.638 9.95793 102.53 9.61076 102.356 9.41566C102.183 9.22035 101.923 9.11193 101.575 9.11193" fill="white"/>
</g>
<defs>
<clipPath id="clip0_582_110">
<rect width="105.94" height="24" fill="white"/>
</clipPath>
</defs>
</svg>
